<?xml version="1.0" standalone="no"?>
<!DOCTYPE svg PUBLIC "-//W3C//DTD SVG 20010904//EN"
 "http://www.w3.org/TR/2001/REC-SVG-20010904/DTD/svg10.dtd">
<svg version="1.0" xmlns="http://www.w3.org/2000/svg"
 width="260.000000pt" height="260.000000pt" viewBox="0 0 260.000000 260.000000"
 preserveAspectRatio="xMidYMid meet">
<metadata>
Created by potrace 1.14, written by Peter Selinger 2001-2017
</metadata>
<g transform="translate(0.000000,260.000000) scale(0.100000,-0.100000)"
fill="#000000" stroke="none">
<path d="M1035 2590 c-104 -11 -154 -29 -170 -61 -8 -14 -23 -29 -33 -31 -14
-4 -26 -33 -49 -119 -42 -151 -41 -149 -67 -304 -16 -97 -25 -168 -31 -231 -2
-21 -7 -75 -11 -119 -11 -121 -9 -283 5 -346 22 -102 108 -225 309 -438 231
-246 260 -300 256 -474 -1 -54 -4 -100 -6 -102 -3 -3 -68 -11 -165 -20 -59 -6
-167 -37 -228 -65 -175 -81 -63 -202 221 -237 75 -10 393 -9 459 1 125 19 214
49 271 92 17 13 34 21 36 19 3 -3 4 13 4 34 -1 48 -25 76 -91 106 -57 27 -187
53 -288 59 -38 2 -70 6 -73 8 -2 2 -5 34 -7 70 -11 194 37 286 284 548 32 34
147 178 180 226 82 119 99 181 94 352 -4 134 -5 150 -36 362 -31 216 -64 372
-107 499 -27 79 -30 84 -67 97 -22 8 -69 16 -105 20 -36 3 -85 9 -110 13 -25
5 -94 9 -154 10 -127 2 -153 5 -192 26 -16 8 -36 14 -44 14 -8 -1 -46 -5 -85
-9z"/>
</g>
</svg>
